<?xml version="1.0"?>
<svg xmlns="http://www.w3.org/2000/svg" id="line" viewBox="0 0 64 64" width="512" height="512"><path d="M61,48.9V60a3,3,0,0,1-3,3H18a3,3,0,0,1-3-3V48.9c.87.18.63.07,10,.1v3a1,1,0,0,0,2,0V49H49v3a1,1,0,0,0,2,0V49C60.37,49,60.13,49.08,61,48.9ZM63,32V44a3,3,0,0,1-3,3H51V44a1,1,0,0,0-2,0v3H27V44a1,1,0,0,0-2,0v3H16a3,3,0,0,1-3-3V32a3,3,0,0,1,3-3H31V26a1,1,0,0,1,1-1H44a1,1,0,0,1,1,1v3H60A3,3,0,0,1,63,32ZM33,29H43V27H33Z" style="fill:#c4a2fc"/><path d="M25.68,29.87C40.94,23.6,36.23,1,20,1S-.87,23.55,14.25,29.85A18.85,18.85,0,0,0,1,48a3,3,0,0,0,3,3H36a3,3,0,0,0,3-3A19,19,0,0,0,25.68,29.87ZM19.41,49,16.2,45.78,20,37.42l3.8,8.36L20.59,49ZM20,33.4l-1.83-2.29a15.45,15.45,0,0,1,3.66,0ZM32.22,11.61,29.88,13.2A3,3,0,0,0,27,11H24a3,3,0,0,0-3,3H19a3,3,0,0,0-3-3c-1.32.22-5-.92-5.88,2.2L7.78,11.61C11.91.16,28.09.15,32.22,11.61ZM23,14a1,1,0,0,1,1-1h3a1,1,0,0,1,1,1v2a1,1,0,0,1-1,1c-1.67-.19-4,.57-4-1Zm-6,2c0,1.57-2.33.81-4,1-1.49,0-.86-2.09-1-3a1,1,0,0,1,1-1c1.67.19,4-.57,4,1ZM7.22,13.64,10,15.53V16a3,3,0,0,0,3,3h3a3,3,0,0,0,3-3h2a3,3,0,0,0,3,3h3a3,3,0,0,0,3-3v-.47l2.78-1.89a13,13,0,1,1-25.56,0ZM3,48H3A16.8,16.8,0,0,1,15.9,31.48l2.94,3.67L14.09,45.59a1,1,0,0,0,.2,1.12L16.59,49H4A1,1,0,0,1,3,48Zm33,1H23.41l2.3-2.29a1,1,0,0,0,.2-1.12L21.16,35.15l2.92-3.65A17,17,0,0,1,37,48,1,1,0,0,1,36,49ZM15.23,24.64a1,1,0,0,1,1.54-1.28,4,4,0,0,0,6.46,0,1,1,0,0,1,1.54,1.28A6,6,0,0,1,15.23,24.64Z" style="fill:#151a6a"/></svg>
